<svg xmlns="http://www.w3.org/2000/svg" width="1200" height="300" viewBox="0 0 1200 300" role="img" aria-label="data-structures-analysis">
  <defs>
    <linearGradient id="bg" x1="0" y1="0" x2="1" y2="1">
      <stop offset="0" stop-color="#0d1117"/>
      <stop offset="1" stop-color="#7f3d00"/>
    </linearGradient>
    <linearGradient id="accentbar" x1="0" y1="0" x2="0" y2="1">
      <stop offset="0" stop-color="#E76F00"/>
      <stop offset="1" stop-color="#7f3d00"/>
    </linearGradient>
  </defs>
  <rect width="1200" height="300" fill="url(#bg)"/>
  <rect width="1200" height="300" fill="#0d1117" fill-opacity="0.55"/>
  <rect x="0" y="0" width="14" height="300" fill="url(#accentbar)"/>
  <circle cx="1080" cy="80" r="180" fill="#E76F00" fill-opacity="0.06"/>
  <circle cx="1140" cy="240" r="120" fill="#E76F00" fill-opacity="0.05"/>
  <text x="60" y="96" font-family="Segoe UI,Helvetica,Arial,sans-serif" font-size="56" font-weight="700" fill="#f0f6fc">data-structures-analysis</text>
  <text x="60" y="152" font-family="Segoe UI,Helvetica,Arial,sans-serif" font-size="24" fill="#8b949e">Empirical performance analysis of data structures and sorting</text><text x="60" y="186" font-family="Segoe UI,Helvetica,Arial,sans-serif" font-size="24" fill="#8b949e">algorithms in Java</text>
  <g><rect x="60" y="232" rx="13" ry="13" width="85" height="30" fill="#161b22" stroke="#E76F00" stroke-opacity="0.45"/><text x="102" y="252" text-anchor="middle" font-family="SFMono-Regular,Consolas,Liberation Mono,Menlo,monospace" font-size="14" fill="#c9d1d9">Java 17</text></g><g><rect x="157" y="232" rx="13" ry="13" width="67" height="30" fill="#161b22" stroke="#E76F00" stroke-opacity="0.45"/><text x="190" y="252" text-anchor="middle" font-family="SFMono-Regular,Consolas,Liberation Mono,Menlo,monospace" font-size="14" fill="#c9d1d9">Maven</text></g><g><rect x="236" y="232" rx="13" ry="13" width="85" height="30" fill="#161b22" stroke="#E76F00" stroke-opacity="0.45"/><text x="278" y="252" text-anchor="middle" font-family="SFMono-Regular,Consolas,Liberation Mono,Menlo,monospace" font-size="14" fill="#c9d1d9">JUnit 5</text></g><g><rect x="333" y="232" rx="13" ry="13" width="49" height="30" fill="#161b22" stroke="#E76F00" stroke-opacity="0.45"/><text x="358" y="252" text-anchor="middle" font-family="SFMono-Regular,Consolas,Liberation Mono,Menlo,monospace" font-size="14" fill="#c9d1d9">JMH</text></g>
</svg>